<svg xmlns="http://www.w3.org/2000/svg" viewBox="0 0 64 64" fill="none" aria-hidden="true">
  <path d="M23 23a7 7 0 1 1 14 0 7 7 0 0 1-14 0z" stroke="#ff1f1f" stroke-width="4" stroke-linecap="round" stroke-linejoin="round"/>
  <path d="M40.5 26.5a5.5 5.5 0 1 1 11 0 5.5 5.5 0 0 1-11 0z" stroke="#ff1f1f" stroke-width="4" stroke-linecap="round" stroke-linejoin="round"/>
  <path d="M12.5 26.5a5.5 5.5 0 1 1 11 0 5.5 5.5 0 0 1-11 0z" stroke="#ff1f1f" stroke-width="4" stroke-linecap="round" stroke-linejoin="round"/>
  <path d="M16.5 49.5c1.2-6.2 6.6-10.5 13.5-10.5h4c6.9 0 12.3 4.3 13.5 10.5" stroke="#ff1f1f" stroke-width="4" stroke-linecap="round" stroke-linejoin="round"/>
  <path d="M7.5 49.5c.8-4.4 4.6-7.4 9.4-7.4h2.1" stroke="#ff1f1f" stroke-width="4" stroke-linecap="round" stroke-linejoin="round"/>
  <path d="M56.5 49.5c-.8-4.4-4.6-7.4-9.4-7.4H45" stroke="#ff1f1f" stroke-width="4" stroke-linecap="round" stroke-linejoin="round"/>
</svg>
