<svg xmlns="http://www.w3.org/2000/svg" width="96" height="96" viewBox="0 0 24 24" role="img" aria-labelledby="title">
  <title id="title">WhatsApp</title>
  <path fill="#fff" d="M12 2a10 10 0 0 0-8.7 14.9L2 22l5.3-1.4A10 10 0 1 0 12 2Zm5.6 14.3c-.2.6-1.3 1.2-1.8 1.3-.5.1-1.1.2-3.6-.9-3-1.3-4.9-4.4-5-4.6-.1-.2-1.2-1.5-1.2-2.9s.8-2 1-2.3c.3-.3.6-.4.8-.4h.6c.2 0 .5 0 .7.5.3.7 1 2.4 1.1 2.6.1.2.1.4 0 .6-.1.2-.2.4-.4.6-.2.2-.3.4-.5.6-.2.2-.4.4-.2.7.2.3.9 1.5 2 2.4 1.4 1.2 2.5 1.6 2.9 1.8.4.2.6.1.8-.1.2-.2.9-1 1.1-1.4.2-.3.5-.3.8-.2.3.1 2 .9 2.3 1 .3.2.5.3.6.5.1.2.1 1.2-.2 1.8Z"/>
</svg>
